{
  "generated_at": "2026-04-12T22:57:08.312730+00:00",
  "preset": null,
  "fail_profile": "creative-audio-strict",
  "directory": "/home/clawdy/.openclaw/workspace/tmp/creative-tooling-check",
  "dir_alias": "creative-tooling-check",
  "kinds": [
    "audio"
  ],
  "excludes": [
    "reports",
    "helper-*"
  ],
  "exclude_sets": [
    "artifact-defaults"
  ],
  "includes": [
    "*.wav"
  ],
  "include_sets": [
    "audio-wav"
  ],
  "name_contains": null,
  "name_not_contains": null,
  "warnings_only": false,
  "report_append": false,
  "summary_only": false,
  "fail_on_warnings": true,
  "max_warning_files": 0,
  "max_total_warnings": 0,
  "summary": {
    "total": 2,
    "ok_count": 2,
    "warning_count": 0,
    "total_warnings": 0
  },
  "items": [
    {
      "path": "/home/clawdy/.openclaw/workspace/tmp/creative-tooling-check/sample-tone-normalized.wav",
      "exists": true,
      "kind": "audio",
      "size_bytes": 64080,
      "warnings": [],
      "duration_seconds": 1.0,
      "bit_rate": 512640,
      "audio": {
        "input_file": "'/home/clawdy/.openclaw/workspace/tmp/creative-tooling-check/sample-tone-normalized.wav'",
        "channels": "1",
        "sample_rate": "16000",
        "precision": "32-bit",
        "duration": "00:00:01.00 = 16000 samples ~ 75 CDDA sectors",
        "file_size": "64.1k",
        "bit_rate": "513k",
        "sample_encoding": "32-bit Signed Integer PCM"
      },
      "ok": true
    },
    {
      "path": "/home/clawdy/.openclaw/workspace/tmp/creative-tooling-check/sample-tone.wav",
      "exists": true,
      "kind": "audio",
      "size_bytes": 64080,
      "warnings": [],
      "duration_seconds": 1.0,
      "bit_rate": 512640,
      "audio": {
        "input_file": "'/home/clawdy/.openclaw/workspace/tmp/creative-tooling-check/sample-tone.wav'",
        "channels": "1",
        "sample_rate": "16000",
        "precision": "32-bit",
        "duration": "00:00:01.00 = 16000 samples ~ 75 CDDA sectors",
        "file_size": "64.1k",
        "bit_rate": "513k",
        "sample_encoding": "32-bit Signed Integer PCM"
      },
      "ok": true
    }
  ],
  "fail_reasons": [],
  "exit_code": 0,
  "summary_by_kind": {
    "audio": {
      "total": 2,
      "ok_count": 2,
      "warning_count": 0
    }
  }
}